<mxfile host="app.diagrams.net" modified="2020-05-13T17:58:03.972Z" agent="5.0 (Windows NT 10.0; Win64; x64) AppleWebKit/537.36 (KHTML, like Gecko) Chrome/81.0.4044.138 Safari/537.36" etag="fmy-xNNiBjBkH4Kipk33" version="13.1.0" type="github">
  <diagram id="su4XwPJnpuu6NtYv9xzp" name="Page-1">
    <mxGraphModel dx="782" dy="1638" grid="1" gridSize="10" guides="1" tooltips="1" connect="1" arrows="1" fold="1" page="1" pageScale="1" pageWidth="827" pageHeight="1169" math="0" shadow="0">
      <root>
        <mxCell id="0" />
        <mxCell id="1" parent="0" />
        <mxCell id="zwuyxZNE1CpreP4BMZ5E-5" value="Change Shifts" style="swimlane;html=1;childLayout=stackLayout;resizeParent=1;resizeParentMax=0;startSize=20;" parent="1" vertex="1">
          <mxGeometry x="200" y="-70" width="950" height="880" as="geometry" />
        </mxCell>
        <mxCell id="zwuyxZNE1CpreP4BMZ5E-26" value="" style="edgeStyle=orthogonalEdgeStyle;html=1;verticalAlign=bottom;endArrow=open;endSize=8;strokeColor=#ff0000;entryX=1;entryY=0.5;entryDx=0;entryDy=0;" parent="zwuyxZNE1CpreP4BMZ5E-5" source="zwuyxZNE1CpreP4BMZ5E-25" target="zwuyxZNE1CpreP4BMZ5E-33" edge="1">
          <mxGeometry relative="1" as="geometry">
            <mxPoint x="430" y="430" as="targetPoint" />
          </mxGeometry>
        </mxCell>
        <mxCell id="zwuyxZNE1CpreP4BMZ5E-6" value="Secretary" style="swimlane;html=1;startSize=20;" parent="zwuyxZNE1CpreP4BMZ5E-5" vertex="1">
          <mxGeometry y="20" width="550" height="860" as="geometry" />
        </mxCell>
        <mxCell id="zwuyxZNE1CpreP4BMZ5E-15" value="" style="edgeStyle=orthogonalEdgeStyle;html=1;verticalAlign=bottom;endArrow=open;endSize=8;strokeColor=#ff0000;exitX=0.5;exitY=1;exitDx=0;exitDy=0;" parent="zwuyxZNE1CpreP4BMZ5E-6" source="zwuyxZNE1CpreP4BMZ5E-40" edge="1">
          <mxGeometry relative="1" as="geometry">
            <mxPoint x="273" y="280" as="targetPoint" />
            <mxPoint x="280" y="290" as="sourcePoint" />
            <Array as="points">
              <mxPoint x="273" y="230" />
            </Array>
          </mxGeometry>
        </mxCell>
        <mxCell id="zwuyxZNE1CpreP4BMZ5E-34" value="" style="edgeStyle=orthogonalEdgeStyle;html=1;verticalAlign=bottom;endArrow=open;endSize=8;strokeColor=#ff0000;entryX=0;entryY=0.5;entryDx=0;entryDy=0;" parent="zwuyxZNE1CpreP4BMZ5E-6" source="zwuyxZNE1CpreP4BMZ5E-33" target="zwuyxZNE1CpreP4BMZ5E-52" edge="1">
          <mxGeometry relative="1" as="geometry">
            <mxPoint x="160" y="400" as="targetPoint" />
            <Array as="points">
              <mxPoint x="150" y="570" />
              <mxPoint x="150" y="400" />
            </Array>
          </mxGeometry>
        </mxCell>
        <mxCell id="zwuyxZNE1CpreP4BMZ5E-49" value="Other Free&lt;br&gt;Employees" style="text;html=1;align=center;verticalAlign=middle;resizable=0;points=[];autosize=1;" parent="zwuyxZNE1CpreP4BMZ5E-6" vertex="1">
          <mxGeometry x="200" y="320" width="70" height="30" as="geometry" />
        </mxCell>
        <mxCell id="zwuyxZNE1CpreP4BMZ5E-43" value="" style="rhombus;whiteSpace=wrap;html=1;fillColor=#ffffc0;strokeColor=#ff0000;" parent="zwuyxZNE1CpreP4BMZ5E-6" vertex="1">
          <mxGeometry x="230" y="280" width="80" height="40" as="geometry" />
        </mxCell>
        <mxCell id="zwuyxZNE1CpreP4BMZ5E-44" value="No other Employee Off" style="edgeStyle=orthogonalEdgeStyle;html=1;align=left;verticalAlign=bottom;endArrow=open;endSize=8;strokeColor=#ff0000;" parent="zwuyxZNE1CpreP4BMZ5E-6" source="zwuyxZNE1CpreP4BMZ5E-43" edge="1">
          <mxGeometry x="-1" relative="1" as="geometry">
            <mxPoint x="430" y="300" as="targetPoint" />
          </mxGeometry>
        </mxCell>
        <mxCell id="zwuyxZNE1CpreP4BMZ5E-45" value="" style="edgeStyle=orthogonalEdgeStyle;html=1;align=left;verticalAlign=top;endArrow=open;endSize=8;strokeColor=#ff0000;" parent="zwuyxZNE1CpreP4BMZ5E-6" source="zwuyxZNE1CpreP4BMZ5E-43" edge="1">
          <mxGeometry x="-1" relative="1" as="geometry">
            <mxPoint x="270" y="380" as="targetPoint" />
          </mxGeometry>
        </mxCell>
        <mxCell id="zwuyxZNE1CpreP4BMZ5E-52" value="Send Request to another Employee for shift change" style="rounded=1;whiteSpace=wrap;html=1;arcSize=40;fontColor=#000000;fillColor=#ffffc0;strokeColor=#ff0000;" parent="zwuyxZNE1CpreP4BMZ5E-6" vertex="1">
          <mxGeometry x="210" y="380" width="120" height="40" as="geometry" />
        </mxCell>
        <mxCell id="zwuyxZNE1CpreP4BMZ5E-40" value="Check Employee Requests for &lt;br&gt;Shift Change/ Day off" style="rounded=1;whiteSpace=wrap;html=1;arcSize=40;fontColor=#000000;fillColor=#ffffc0;strokeColor=#ff0000;" parent="zwuyxZNE1CpreP4BMZ5E-6" vertex="1">
          <mxGeometry x="200" y="210" width="140" height="40" as="geometry" />
        </mxCell>
        <mxCell id="zwuyxZNE1CpreP4BMZ5E-33" value="Look for another Employee" style="rounded=1;whiteSpace=wrap;html=1;arcSize=40;fontColor=#000000;fillColor=#ffffc0;strokeColor=#ff0000;" parent="zwuyxZNE1CpreP4BMZ5E-6" vertex="1">
          <mxGeometry x="240" y="550" width="120" height="40" as="geometry" />
        </mxCell>
        <mxCell id="zwuyxZNE1CpreP4BMZ5E-59" value="Shift remains the same" style="rounded=1;whiteSpace=wrap;html=1;arcSize=40;fontColor=#000000;fillColor=#ffffc0;strokeColor=#ff0000;" parent="zwuyxZNE1CpreP4BMZ5E-6" vertex="1">
          <mxGeometry x="430" y="360" width="120" height="40" as="geometry" />
        </mxCell>
        <mxCell id="zwuyxZNE1CpreP4BMZ5E-50" value="Reject Request for&amp;nbsp;&lt;br&gt;Shift Change" style="rounded=1;whiteSpace=wrap;html=1;arcSize=40;fontColor=#000000;fillColor=#ffffc0;strokeColor=#ff0000;" parent="zwuyxZNE1CpreP4BMZ5E-6" vertex="1">
          <mxGeometry x="430" y="280" width="120" height="40" as="geometry" />
        </mxCell>
        <mxCell id="zwuyxZNE1CpreP4BMZ5E-53" value="" style="edgeStyle=orthogonalEdgeStyle;html=1;verticalAlign=bottom;endArrow=open;endSize=8;strokeColor=#ff0000;entryX=0;entryY=0.5;entryDx=0;entryDy=0;exitX=0.5;exitY=1;exitDx=0;exitDy=0;" parent="zwuyxZNE1CpreP4BMZ5E-5" source="zwuyxZNE1CpreP4BMZ5E-52" target="zwuyxZNE1CpreP4BMZ5E-18" edge="1">
          <mxGeometry relative="1" as="geometry">
            <mxPoint x="270" y="500" as="targetPoint" />
          </mxGeometry>
        </mxCell>
        <mxCell id="zwuyxZNE1CpreP4BMZ5E-7" value="Employee" style="swimlane;html=1;startSize=20;" parent="zwuyxZNE1CpreP4BMZ5E-5" vertex="1">
          <mxGeometry x="550" y="20" width="400" height="860" as="geometry" />
        </mxCell>
        <mxCell id="zwuyxZNE1CpreP4BMZ5E-20" value="" style="edgeStyle=orthogonalEdgeStyle;html=1;align=left;verticalAlign=top;endArrow=open;endSize=8;strokeColor=#ff0000;entryX=0.5;entryY=0;entryDx=0;entryDy=0;" parent="zwuyxZNE1CpreP4BMZ5E-7" source="zwuyxZNE1CpreP4BMZ5E-18" target="zwuyxZNE1CpreP4BMZ5E-25" edge="1">
          <mxGeometry x="-1" y="30" relative="1" as="geometry">
            <mxPoint x="70" y="400" as="targetPoint" />
            <mxPoint as="offset" />
          </mxGeometry>
        </mxCell>
        <mxCell id="zwuyxZNE1CpreP4BMZ5E-19" value="Available" style="edgeStyle=orthogonalEdgeStyle;html=1;align=left;verticalAlign=bottom;endArrow=open;endSize=8;strokeColor=#ff0000;" parent="zwuyxZNE1CpreP4BMZ5E-7" source="zwuyxZNE1CpreP4BMZ5E-18" target="zwuyxZNE1CpreP4BMZ5E-21" edge="1">
          <mxGeometry x="-1" relative="1" as="geometry">
            <mxPoint x="200" y="330" as="targetPoint" />
          </mxGeometry>
        </mxCell>
        <mxCell id="zwuyxZNE1CpreP4BMZ5E-57" value="" style="ellipse;html=1;shape=endState;fillColor=#000000;strokeColor=#ff0000;" parent="zwuyxZNE1CpreP4BMZ5E-7" vertex="1">
          <mxGeometry y="760" width="30" height="30" as="geometry" />
        </mxCell>
        <mxCell id="zwuyxZNE1CpreP4BMZ5E-56" value="" style="shape=line;html=1;strokeWidth=6;strokeColor=#ff0000;" parent="zwuyxZNE1CpreP4BMZ5E-7" vertex="1">
          <mxGeometry x="-80" y="690" width="200" height="10" as="geometry" />
        </mxCell>
        <mxCell id="zwuyxZNE1CpreP4BMZ5E-22" value="Unavailable" style="text;html=1;align=center;verticalAlign=middle;resizable=0;points=[];autosize=1;" parent="zwuyxZNE1CpreP4BMZ5E-7" vertex="1">
          <mxGeometry y="500" width="80" height="20" as="geometry" />
        </mxCell>
        <mxCell id="zwuyxZNE1CpreP4BMZ5E-18" value="" style="rhombus;whiteSpace=wrap;html=1;fillColor=#ffffc0;strokeColor=#ff0000;" parent="zwuyxZNE1CpreP4BMZ5E-7" vertex="1">
          <mxGeometry x="40" y="450" width="80" height="40" as="geometry" />
        </mxCell>
        <mxCell id="zwuyxZNE1CpreP4BMZ5E-32" value="" style="edgeStyle=orthogonalEdgeStyle;html=1;verticalAlign=bottom;endArrow=open;endSize=8;strokeColor=#ff0000;exitX=0.5;exitY=1;exitDx=0;exitDy=0;entryX=0.5;entryY=0;entryDx=0;entryDy=0;" parent="zwuyxZNE1CpreP4BMZ5E-7" source="zwuyxZNE1CpreP4BMZ5E-21" target="zwuyxZNE1CpreP4BMZ5E-27" edge="1">
          <mxGeometry relative="1" as="geometry">
            <mxPoint x="250" y="380" as="targetPoint" />
            <mxPoint x="260" y="560" as="sourcePoint" />
          </mxGeometry>
        </mxCell>
        <mxCell id="zwuyxZNE1CpreP4BMZ5E-25" value="Reject shift change" style="rounded=1;whiteSpace=wrap;html=1;arcSize=40;fontColor=#000000;fillColor=#ffffc0;strokeColor=#ff0000;" parent="zwuyxZNE1CpreP4BMZ5E-7" vertex="1">
          <mxGeometry x="20" y="550" width="120" height="40" as="geometry" />
        </mxCell>
        <mxCell id="zwuyxZNE1CpreP4BMZ5E-10" value="" style="ellipse;html=1;shape=startState;fillColor=#000000;strokeColor=#ff0000;" parent="zwuyxZNE1CpreP4BMZ5E-7" vertex="1">
          <mxGeometry x="185" y="20" width="30" height="30" as="geometry" />
        </mxCell>
        <mxCell id="zwuyxZNE1CpreP4BMZ5E-12" value="Go to Dashboard/ Employees Timetable" style="rounded=1;whiteSpace=wrap;html=1;arcSize=40;fontColor=#000000;fillColor=#ffffc0;strokeColor=#ff0000;" parent="zwuyxZNE1CpreP4BMZ5E-7" vertex="1">
          <mxGeometry x="140" y="70" width="120" height="40" as="geometry" />
        </mxCell>
        <mxCell id="vPjIb9iqPIG-cx9mNDr7-1" value="Select a shift to change" style="rounded=1;whiteSpace=wrap;html=1;arcSize=40;fontColor=#000000;fillColor=#ffffc0;strokeColor=#ff0000;" parent="zwuyxZNE1CpreP4BMZ5E-7" vertex="1">
          <mxGeometry x="140" y="130" width="120" height="40" as="geometry" />
        </mxCell>
        <mxCell id="vPjIb9iqPIG-cx9mNDr7-3" value="Send a request for shift Change" style="rounded=1;whiteSpace=wrap;html=1;arcSize=40;fontColor=#000000;fillColor=#ffffc0;strokeColor=#ff0000;" parent="zwuyxZNE1CpreP4BMZ5E-7" vertex="1">
          <mxGeometry x="140" y="190" width="120" height="40" as="geometry" />
        </mxCell>
        <mxCell id="zwuyxZNE1CpreP4BMZ5E-21" value="Accept shift change" style="rounded=1;whiteSpace=wrap;html=1;arcSize=40;fontColor=#000000;fillColor=#ffffc0;strokeColor=#ff0000;" parent="zwuyxZNE1CpreP4BMZ5E-7" vertex="1">
          <mxGeometry x="220" y="450" width="120" height="40" as="geometry" />
        </mxCell>
        <mxCell id="zwuyxZNE1CpreP4BMZ5E-27" value="Shift is Rescheduled" style="rounded=1;whiteSpace=wrap;html=1;arcSize=40;fontColor=#000000;fillColor=#ffffc0;strokeColor=#ff0000;" parent="zwuyxZNE1CpreP4BMZ5E-7" vertex="1">
          <mxGeometry x="220" y="550" width="120" height="40" as="geometry" />
        </mxCell>
        <mxCell id="zwuyxZNE1CpreP4BMZ5E-28" value="" style="edgeStyle=orthogonalEdgeStyle;html=1;verticalAlign=bottom;endArrow=open;endSize=8;strokeColor=#ff0000;" parent="zwuyxZNE1CpreP4BMZ5E-7" source="zwuyxZNE1CpreP4BMZ5E-27" target="zwuyxZNE1CpreP4BMZ5E-56" edge="1">
          <mxGeometry relative="1" as="geometry">
            <mxPoint x="280" y="670" as="targetPoint" />
            <Array as="points">
              <mxPoint x="280" y="650" />
              <mxPoint x="60" y="650" />
            </Array>
          </mxGeometry>
        </mxCell>
        <mxCell id="zwuyxZNE1CpreP4BMZ5E-61" value="" style="edgeStyle=orthogonalEdgeStyle;html=1;align=left;verticalAlign=top;endArrow=open;endSize=8;strokeColor=#ff0000;exitX=0.483;exitY=0.433;exitDx=0;exitDy=0;exitPerimeter=0;" parent="zwuyxZNE1CpreP4BMZ5E-7" source="zwuyxZNE1CpreP4BMZ5E-56" edge="1">
          <mxGeometry x="-1" y="30" relative="1" as="geometry">
            <mxPoint x="17" y="760" as="targetPoint" />
            <mxPoint x="17" y="696" as="sourcePoint" />
            <mxPoint as="offset" />
            <Array as="points">
              <mxPoint x="17" y="760" />
            </Array>
          </mxGeometry>
        </mxCell>
        <mxCell id="vPjIb9iqPIG-cx9mNDr7-2" value="" style="edgeStyle=orthogonalEdgeStyle;html=1;verticalAlign=bottom;endArrow=open;endSize=8;strokeColor=#ff0000;" parent="zwuyxZNE1CpreP4BMZ5E-7" source="vPjIb9iqPIG-cx9mNDr7-1" target="vPjIb9iqPIG-cx9mNDr7-3" edge="1">
          <mxGeometry relative="1" as="geometry">
            <mxPoint x="200" y="200" as="targetPoint" />
          </mxGeometry>
        </mxCell>
        <mxCell id="zwuyxZNE1CpreP4BMZ5E-51" value="" style="edgeStyle=orthogonalEdgeStyle;html=1;verticalAlign=bottom;endArrow=open;endSize=8;strokeColor=#ff0000;" parent="zwuyxZNE1CpreP4BMZ5E-5" source="zwuyxZNE1CpreP4BMZ5E-50" edge="1">
          <mxGeometry relative="1" as="geometry">
            <mxPoint x="490" y="380" as="targetPoint" />
            <Array as="points">
              <mxPoint x="490" y="370" />
              <mxPoint x="490" y="370" />
            </Array>
          </mxGeometry>
        </mxCell>
        <mxCell id="zwuyxZNE1CpreP4BMZ5E-60" value="" style="edgeStyle=orthogonalEdgeStyle;html=1;verticalAlign=bottom;endArrow=open;endSize=8;strokeColor=#ff0000;" parent="zwuyxZNE1CpreP4BMZ5E-5" source="zwuyxZNE1CpreP4BMZ5E-59" edge="1">
          <mxGeometry relative="1" as="geometry">
            <mxPoint x="530" y="715" as="targetPoint" />
            <Array as="points">
              <mxPoint x="490" y="670" />
              <mxPoint x="530" y="670" />
            </Array>
          </mxGeometry>
        </mxCell>
        <mxCell id="zwuyxZNE1CpreP4BMZ5E-11" value="" style="edgeStyle=orthogonalEdgeStyle;html=1;verticalAlign=bottom;endArrow=open;endSize=8;strokeColor=#ff0000;exitX=0.5;exitY=1;exitDx=0;exitDy=0;" parent="zwuyxZNE1CpreP4BMZ5E-5" source="zwuyxZNE1CpreP4BMZ5E-10" edge="1">
          <mxGeometry relative="1" as="geometry">
            <mxPoint x="750" y="90" as="targetPoint" />
            <mxPoint x="266" y="80" as="sourcePoint" />
            <Array as="points">
              <mxPoint x="750" y="90" />
              <mxPoint x="750" y="90" />
            </Array>
          </mxGeometry>
        </mxCell>
        <mxCell id="zwuyxZNE1CpreP4BMZ5E-13" value="" style="edgeStyle=orthogonalEdgeStyle;html=1;verticalAlign=bottom;endArrow=open;endSize=8;strokeColor=#ff0000;exitX=0.5;exitY=1;exitDx=0;exitDy=0;" parent="zwuyxZNE1CpreP4BMZ5E-5" source="zwuyxZNE1CpreP4BMZ5E-12" edge="1">
          <mxGeometry relative="1" as="geometry">
            <mxPoint x="750" y="150" as="targetPoint" />
            <mxPoint x="270" y="170" as="sourcePoint" />
            <Array as="points">
              <mxPoint x="750" y="140" />
              <mxPoint x="750" y="140" />
            </Array>
          </mxGeometry>
        </mxCell>
        <mxCell id="vPjIb9iqPIG-cx9mNDr7-4" value="" style="edgeStyle=orthogonalEdgeStyle;html=1;verticalAlign=bottom;endArrow=open;endSize=8;strokeColor=#ff0000;exitX=0.5;exitY=1;exitDx=0;exitDy=0;entryX=0.5;entryY=0;entryDx=0;entryDy=0;" parent="zwuyxZNE1CpreP4BMZ5E-5" source="vPjIb9iqPIG-cx9mNDr7-3" target="zwuyxZNE1CpreP4BMZ5E-40" edge="1">
          <mxGeometry relative="1" as="geometry">
            <mxPoint x="270" y="220" as="targetPoint" />
            <mxPoint x="750" y="250" as="sourcePoint" />
            <Array as="points">
              <mxPoint x="750" y="260" />
              <mxPoint x="370" y="260" />
              <mxPoint x="370" y="200" />
              <mxPoint x="270" y="200" />
            </Array>
          </mxGeometry>
        </mxCell>
      </root>
    </mxGraphModel>
  </diagram>
</mxfile>
